<svg version="1.1" class="highcharts-root" style="font-family:&quot;Avenir&quot;, &quot;wf_SegoeUI&quot;, &quot;Segoe UI&quot;, &quot;Segoe&quot;, &quot;Segoe WP&quot;, &quot;Tahoma&quot;, &quot;Verdana&quot;, &quot;Arial&quot;, &quot;sans-serif&quot;;font-size:12px;" xmlns="http://www.w3.org/2000/svg" width="758" viewBox="0 0 758 262" height="262"><defs><clipPath id="highcharts-7sehr4q-758"><rect x="0" y="0" width="625" height="212" fill="none"></rect></clipPath></defs><rect fill="none" class="highcharts-background" x="0" y="0" width="758" height="262" rx="0" ry="0"></rect><rect fill="none" class="highcharts-plot-background" x="61" y="22" width="625" height="212"></rect><g class="highcharts-plot-lines-0"><path fill="none" stroke="#ccc" stroke-width="1" stroke-dasharray="none" d="M 61 234.5 L 686 234.5"></path></g><g class="highcharts-grid highcharts-xaxis-grid "><path fill="none" class="highcharts-grid-line" d="M 185.5 22 L 185.5 234" opacity="1"></path><path fill="none" class="highcharts-grid-line" d="M 310.5 22 L 310.5 234" opacity="1"></path><path fill="none" class="highcharts-grid-line" d="M 435.5 22 L 435.5 234" opacity="1"></path><path fill="none" class="highcharts-grid-line" d="M 560.5 22 L 560.5 234" opacity="1"></path><path fill="none" class="highcharts-grid-line" d="M 685.5 22 L 685.5 234" opacity="1"></path><path fill="none" class="highcharts-grid-line" d="M 60.5 22 L 60.5 234" opacity="1"></path></g><g class="highcharts-grid highcharts-yaxis-grid "><path fill="none" class="highcharts-grid-line" d="M 61 234.5 L 686 234.5" opacity="1"></path><path fill="none" class="highcharts-grid-line" d="M 61 181.5 L 686 181.5" opacity="1"></path><path fill="none" class="highcharts-grid-line" d="M 61 128.5 L 686 128.5" opacity="1"></path><path fill="none" class="highcharts-grid-line" d="M 61 75.5 L 686 75.5" opacity="1"></path><path fill="none" class="highcharts-grid-line" d="M 61 22.5 L 686 22.5" opacity="1"></path></g><rect fill="none" class="highcharts-plot-border" x="61" y="22" width="625" height="212"></rect><g class="highcharts-axis highcharts-xaxis "><path fill="none" class="highcharts-axis-line" stroke="#ccc" stroke-width="1" stroke-dasharray="none" d="M 61 234.5 L 686 234.5"></path></g><g class="highcharts-axis highcharts-yaxis "><text x="17.265625" text-anchor="middle" transform="translate(0,0) rotate(270 17.265625 128)" class="highcharts-axis-title" style="color:#666666;font-size:inherit;color-adaption:true;enabled:true;font-family:inherit;fill:#666666;" y="128">进度</text><path fill="none" class="highcharts-axis-line" stroke="#ccc" stroke-width="1" stroke-dasharray="none" d="M 60.5 22 L 60.5 234"></path></g><g class="highcharts-series-group"><g class="highcharts-series highcharts-series-0 highcharts-column-series highcharts-color-undefined highcharts-tracker " transform="translate(61,22) scale(1 1)" width="212" height="625" clip-path="url(#highcharts-7sehr4q-758)"><rect x="33" y="199" width="60" height="14" fill="#9BCC66" class="highcharts-point"></rect><rect x="158" y="204" width="60" height="9" fill="#9BCC66" class="highcharts-point"></rect><rect x="283" y="81" width="60" height="132" fill="#9BCC66" class="highcharts-point"></rect><rect x="408" y="204" width="60" height="9" fill="#9BCC66" class="highcharts-point "></rect><rect x="533" y="86" width="60" height="127" fill="#9BCC66" class="highcharts-point "></rect></g><g class="highcharts-markers highcharts-series-0 highcharts-column-series highcharts-color-undefined " transform="translate(61,22) scale(1 1)" width="212" height="625" clip-path="none"></g><g class="highcharts-series highcharts-series-1 highcharts-line-series highcharts-color-undefined " transform="translate(61,22) scale(1 1)" width="212" height="625" clip-path="url(#highcharts-7sehr4q-758)"><path fill="none" d="M 62.5 35.33333333333334 L 187.5 35.33333333333334 L 312.5 35.33333333333334 L 437.5 35.33333333333334 L 562.5 35.33333333333334" class="highcharts-graph" stroke="#F7CB4A" stroke-width="3" stroke-linejoin="round" stroke-linecap="round"></path><path fill="none" d="M 52.5 35.33333333333334 L 62.5 35.33333333333334 L 187.5 35.33333333333334 L 312.5 35.33333333333334 L 437.5 35.33333333333334 L 562.5 35.33333333333334 L 572.5 35.33333333333334" stroke-linejoin="round" visibility="visible" stroke="rgba(192,192,192,0.0001)" stroke-width="23" class="highcharts-tracker"></path></g><g class="highcharts-markers highcharts-series-1 highcharts-line-series highcharts-color-undefined highcharts-tracker" transform="translate(61,22) scale(1 1)" width="212" height="625" clip-path="none"><path fill="rgba(0, 0, 0, 0)" d="M 562 32.33333333333334 C 565.996 32.33333333333334 565.996 38.33333333333334 562 38.33333333333334 C 558.004 38.33333333333334 558.004 32.33333333333334 562 32.33333333333334 Z" class="highcharts-point " stroke-width="3"></path><path fill="rgba(0, 0, 0, 0)" d="M 437 32.33333333333334 C 440.996 32.33333333333334 440.996 38.33333333333334 437 38.33333333333334 C 433.004 38.33333333333334 433.004 32.33333333333334 437 32.33333333333334 Z" class="highcharts-point " stroke-width="3"></path><path fill="rgba(0, 0, 0, 0)" d="M 312 32 C 315.996 32 315.996 38 312 38 C 308.004 38 308.004 32 312 32 Z" class="highcharts-point"></path><path fill="rgba(0, 0, 0, 0)" d="M 187 32 C 190.996 32 190.996 38 187 38 C 183.004 38 183.004 32 187 32 Z" class="highcharts-point"></path><path fill="rgba(0, 0, 0, 0)" d="M 62 32 C 65.996 32 65.996 38 62 38 C 58.004 38 58.004 32 62 32 Z" class="highcharts-point"></path><path fill="#F7CB4A" d="M 562 35.33333333333334 C 562 35.33333333333334 562 35.33333333333334 562 35.33333333333334 C 562 35.33333333333334 562 35.33333333333334 562 35.33333333333334 Z" class="highcharts-halo highcharts-color-undefined" fill-opacity="0.3"></path></g></g><text x="380" text-anchor="middle" class="highcharts-subtitle" style="color:#333333;font-family:Microsoft Yahei;font-size:16px;fill:#333333;width:713px;" y="2"><tspan>进度</tspan></text><g class="highcharts-plot-lines-4"><path fill="none" stroke="#8FC2EC" stroke-width="1" stroke-dasharray="4,3" d="M 61 57.5 L 686 57.5"></path></g><g class="highcharts-data-labels highcharts-series-0 highcharts-column-series highcharts-color-undefined highcharts-tracker" transform="translate(61,22) scale(1 1)" opacity="1"><g class="highcharts-label highcharts-data-label highcharts-data-label-color-undefined " style="" transform="translate(55,176)"><text x="5" style="font-size:10px;font-weight:bold;font-family:inherit;color:#666;text-outline:none;fill:#666;" y="15"><tspan y="15">8</tspan></text></g><g class="highcharts-label highcharts-data-label highcharts-data-label-color-undefined " style="" transform="translate(180,181)"><text x="5" style="font-size:10px;font-weight:bold;font-family:inherit;color:#666;text-outline:none;fill:#666;" y="15"><tspan y="15">5</tspan></text></g><g class="highcharts-label highcharts-data-label highcharts-data-label-color-undefined " style="" transform="translate(303,58)"><text x="5" style="font-size:10px;font-weight:bold;font-family:inherit;color:#666;text-outline:none;fill:#666;" y="15"><tspan y="15">75</tspan></text></g><g class="highcharts-label highcharts-data-label highcharts-data-label-color-undefined " style="" transform="translate(430,181)"><text x="5" style="font-size:10px;font-weight:bold;font-family:inherit;color:#666;text-outline:none;fill:#666;" y="15"><tspan y="15">5</tspan></text></g><g class="highcharts-label highcharts-data-label highcharts-data-label-color-undefined " style="" transform="translate(553,63)"><text x="5" style="font-size:10px;font-weight:bold;font-family:inherit;color:#666;text-outline:none;fill:#666;" y="15"><tspan y="15">72</tspan></text></g></g><g class="highcharts-data-labels highcharts-series-1 highcharts-line-series highcharts-color-undefined " transform="translate(61,22) scale(1 1)" opacity="1"><g class="highcharts-label highcharts-data-label highcharts-data-label-color-undefined " style="" transform="translate(50,12)"><text x="5" style="font-size:10px;font-weight:bold;font-family:inherit;color:#666;text-outline:none;fill:#666;" y="15"><tspan y="15">100</tspan></text></g><g class="highcharts-label highcharts-data-label highcharts-data-label-color-undefined " style="" transform="translate(175,12)"><text x="5" style="font-size:10px;font-weight:bold;font-family:inherit;color:#666;text-outline:none;fill:#666;" y="15"><tspan y="15">100</tspan></text></g><g class="highcharts-label highcharts-data-label highcharts-data-label-color-undefined " style="" transform="translate(300,12)"><text x="5" style="font-size:10px;font-weight:bold;font-family:inherit;color:#666;text-outline:none;fill:#666;" y="15"><tspan y="15">100</tspan></text></g><g class="highcharts-label highcharts-data-label highcharts-data-label-color-undefined " style="" transform="translate(425,12)"><text x="5" style="font-size:10px;font-weight:bold;font-family:inherit;color:#666;text-outline:none;fill:#666;" y="15"><tspan y="15">100</tspan></text></g><g class="highcharts-label highcharts-data-label highcharts-data-label-color-undefined " style="" transform="translate(550,12)"><text x="5" style="font-size:10px;font-weight:bold;font-family:inherit;color:#666;text-outline:none;fill:#666;" y="15"><tspan y="15">100</tspan></text></g></g><g class="highcharts-legend" transform="translate(691,14)"><rect fill="none" class="highcharts-legend-box" rx="0" ry="0" x="0" y="0" width="67" height="47" visibility="visible"></rect><g><g><g class="highcharts-legend-item highcharts-column-series highcharts-color-undefined highcharts-series-0" transform="translate(8,3)"><rect x="0" y="10" width="6" height="6" fill="#9BCC66" rx="3" ry="3" class="highcharts-point"></rect></g><g class="highcharts-legend-item highcharts-line-series highcharts-color-undefined highcharts-series-1" transform="translate(8,21)"><path fill="#F7CB4A" d="M 0 11 L 6 11 L 6 14 L 0 14" class="highcharts-graph"></path><path fill="rgba(0, 0, 0, 0)" d="M 3 8 C 6.996 8 6.996 14 3 14 C -0.996 14 -0.996 8 3 8 Z" class="highcharts-point"></path></g></g></g></g><g class="highcharts-axis-labels highcharts-xaxis-labels "><text x="123.5" style="color:#666666;cursor:default;font-size:inherit;color-adaption:true;enabled:true;font-family:inherit;fill:#666666;width:127px;text-overflow:clip;" text-anchor="middle" transform="translate(0,0)" y="254" opacity="1"><tspan>AnimaUi(kobone)</tspan></text><text x="248.5" style="color:#666666;cursor:default;font-size:inherit;color-adaption:true;enabled:true;font-family:inherit;fill:#666666;width:127px;text-overflow:clip;" text-anchor="middle" transform="translate(0,0)" y="254" opacity="1"><tspan>AnimaUi(vue)</tspan></text><text x="373.5" style="color:#666666;cursor:default;font-size:inherit;color-adaption:true;enabled:true;font-family:inherit;fill:#666666;width:127px;text-overflow:clip;" text-anchor="middle" transform="translate(0,0)" y="254" opacity="1"><tspan>AnimaUi(微信小程序)</tspan></text><text x="498.5" style="color:#666666;cursor:default;font-size:inherit;color-adaption:true;enabled:true;font-family:inherit;fill:#666666;width:127px;text-overflow:clip;" text-anchor="middle" transform="translate(0,0)" y="254" opacity="1"><tspan>AnimaUi(支付宝小程序)</tspan></text><text x="623.5" style="color:#666666;cursor:default;font-size:inherit;color-adaption:true;enabled:true;font-family:inherit;fill:#666666;width:127px;text-overflow:clip;" text-anchor="middle" transform="translate(0,0)" y="254" opacity="1"><tspan>Axure元件库</tspan></text></g><g class="highcharts-axis-labels highcharts-yaxis-labels "><text x="46" style="color:#666666;cursor:default;font-size:inherit;color-adaption:true;enabled:true;font-family:inherit;fill:#666666;width:240px;text-overflow:clip;" text-anchor="end" transform="translate(0,0)" y="238" opacity="1"><tspan>0</tspan></text><text x="46" style="color:#666666;cursor:default;font-size:inherit;color-adaption:true;enabled:true;font-family:inherit;fill:#666666;width:240px;text-overflow:clip;" text-anchor="end" transform="translate(0,0)" y="185" opacity="1"><tspan>30</tspan></text><text x="46" style="color:#666666;cursor:default;font-size:inherit;color-adaption:true;enabled:true;font-family:inherit;fill:#666666;width:240px;text-overflow:clip;" text-anchor="end" transform="translate(0,0)" y="132" opacity="1"><tspan>60</tspan></text><text x="46" style="color:#666666;cursor:default;font-size:inherit;color-adaption:true;enabled:true;font-family:inherit;fill:#666666;width:240px;text-overflow:clip;" text-anchor="end" transform="translate(0,0)" y="79" opacity="1"><tspan>90</tspan></text><text x="46" style="color:#666666;cursor:default;font-size:inherit;color-adaption:true;enabled:true;font-family:inherit;fill:#666666;width:240px;text-overflow:clip;" text-anchor="end" transform="translate(0,0)" y="26" opacity="1"><tspan>120</tspan></text></g></svg>
