<svg version="1.1" class="highcharts-root" style="font-family:&quot;Avenir&quot;, &quot;wf_SegoeUI&quot;, &quot;Segoe UI&quot;, &quot;Segoe&quot;, &quot;Segoe WP&quot;, &quot;Tahoma&quot;, &quot;Verdana&quot;, &quot;Arial&quot;, &quot;sans-serif&quot;;font-size:12px;" xmlns="http://www.w3.org/2000/svg" width="758" viewBox="0 0 758 262" height="262"><desc>Created with Highcharts 5.0.4</desc><defs><clipPath id="highcharts-7sehr4q-549"><rect x="0" y="0" width="566" height="215" fill="none"></rect></clipPath></defs><rect fill="none" class="highcharts-background" x="0" y="0" width="758" height="262" rx="0" ry="0"></rect><rect fill="none" class="highcharts-plot-background" x="54" y="22" width="566" height="215"></rect><g class="highcharts-plot-lines-0"><path fill="none" stroke="#ccc" stroke-width="1" d="M 54 237.5 L 620 237.5"></path></g><g class="highcharts-plot-lines-0"><path fill="none" stroke="#ccc" stroke-width="1" d="M 54 237.5 L 620 237.5"></path></g><g class="highcharts-grid highcharts-xaxis-grid "><path fill="none" class="highcharts-grid-line" d="M 166.5 22 L 166.5 237" opacity="1"></path><path fill="none" class="highcharts-grid-line" d="M 279.5 22 L 279.5 237" opacity="1"></path><path fill="none" class="highcharts-grid-line" d="M 393.5 22 L 393.5 237" opacity="1"></path><path fill="none" class="highcharts-grid-line" d="M 506.5 22 L 506.5 237" opacity="1"></path><path fill="none" class="highcharts-grid-line" d="M 619.5 22 L 619.5 237" opacity="1"></path><path fill="none" class="highcharts-grid-line" d="M 53.5 22 L 53.5 237" opacity="1"></path></g><g class="highcharts-grid highcharts-yaxis-grid "><path fill="none" class="highcharts-grid-line" d="M 54 237.5 L 620 237.5" opacity="1"></path><path fill="none" class="highcharts-grid-line" d="M 54 183.5 L 620 183.5" opacity="1"></path><path fill="none" class="highcharts-grid-line" d="M 54 130.5 L 620 130.5" opacity="1"></path><path fill="none" class="highcharts-grid-line" d="M 54 76.5 L 620 76.5" opacity="1"></path><path fill="none" class="highcharts-grid-line" d="M 54 22.5 L 620 22.5" opacity="1"></path></g><g class="highcharts-grid highcharts-yaxis-grid "><path fill="none" class="highcharts-grid-line" d="M 54 237.5 L 620 237.5" opacity="1"></path><path fill="none" class="highcharts-grid-line" d="M 54 183.5 L 620 183.5" opacity="1"></path><path fill="none" class="highcharts-grid-line" d="M 54 130.5 L 620 130.5" opacity="1"></path><path fill="none" class="highcharts-grid-line" d="M 54 76.5 L 620 76.5" opacity="1"></path><path fill="none" class="highcharts-grid-line" d="M 54 22.5 L 620 22.5" opacity="1"></path></g><rect fill="none" class="highcharts-plot-border" x="54" y="22" width="566" height="215"></rect><g class="highcharts-axis highcharts-xaxis "><path fill="none" class="highcharts-axis-line" stroke="#ccc" stroke-width="1" stroke-dasharray="none" d="M 54 237.5 L 620 237.5"></path></g><g class="highcharts-axis highcharts-yaxis "><text x="17.546875" text-anchor="middle" transform="translate(0,0) rotate(270 17.546875 129.5)" class="highcharts-axis-title" style="color:#666666;fill:#666666;" y="129.5">进度</text><path fill="none" class="highcharts-axis-line" stroke-dasharray="none" d="M 54 22 L 54 237"></path></g><g class="highcharts-axis highcharts-yaxis "><text x="662.171875" text-anchor="middle" transform="translate(0,0) rotate(90 662.171875 129.5)" class="highcharts-axis-title" style="color:#666666;fill:#666666;" y="129.5">完成率</text><path fill="none" class="highcharts-axis-line" stroke-dasharray="none" d="M 620 22 L 620 237"></path></g><g class="highcharts-series-group"><g class="highcharts-series highcharts-series-0 highcharts-column-series highcharts-color-undefined highcharts-tracker " transform="translate(54,22) scale(1 1)" width="215" height="566" clip-path="url(#highcharts-7sehr4q-549)"><rect x="29" y="197" width="55" height="19" fill="#9BCC66" class="highcharts-point "></rect><rect x="143" y="204" width="55" height="12" fill="#9BCC66" class="highcharts-point "></rect><rect x="256" y="41" width="55" height="175" fill="#9BCC66" class="highcharts-point "></rect><rect x="369" y="204" width="55" height="12" fill="#9BCC66" class="highcharts-point"></rect><rect x="482" y="48" width="55" height="168" fill="#9BCC66" class="highcharts-point"></rect></g><g class="highcharts-markers highcharts-series-0 highcharts-column-series highcharts-color-undefined " transform="translate(54,22) scale(1 1)" width="215" height="566" clip-path="none"></g><g class="highcharts-series highcharts-series-1 highcharts-line-series highcharts-color-undefined " transform="translate(54,22) scale(1 1)" width="215" height="566" clip-path="url(#highcharts-7sehr4q-549)"><path fill="none" d="M 56.6 35.833333333333314 L 169.8 35.833333333333314 L 283 35.833333333333314 L 396.2 35.833333333333314 L 509.4 35.833333333333314" class="highcharts-graph" stroke="#3FB27E" stroke-width="3" stroke-linejoin="round" stroke-linecap="round"></path><path fill="none" d="M 46.6 35.833333333333314 L 56.6 35.833333333333314 L 169.8 35.833333333333314 L 283 35.833333333333314 L 396.2 35.833333333333314 L 509.4 35.833333333333314 L 519.4 35.833333333333314" stroke-linejoin="round" visibility="visible" stroke="rgba(192,192,192,0.0001)" stroke-width="23" class="highcharts-tracker"></path></g><g class="highcharts-markers highcharts-series-1 highcharts-line-series highcharts-color-undefined highcharts-tracker " transform="translate(54,22) scale(1 1)" width="215" height="566" clip-path="none"><path fill="rgba(0, 0, 0, 0)" d="M 509 33 C 512.996 33 512.996 39 509 39 C 505.004 39 505.004 33 509 33 Z" class="highcharts-point"></path><path fill="rgba(0, 0, 0, 0)" d="M 396 33 C 399.996 33 399.996 39 396 39 C 392.004 39 392.004 33 396 33 Z" class="highcharts-point"></path><path fill="rgba(0, 0, 0, 0)" d="M 283 32.833333333333314 C 286.996 32.833333333333314 286.996 38.833333333333314 283 38.833333333333314 C 279.004 38.833333333333314 279.004 32.833333333333314 283 32.833333333333314 Z" class="highcharts-point " stroke-width="3"></path><path fill="rgba(0, 0, 0, 0)" d="M 169 32.833333333333314 C 172.996 32.833333333333314 172.996 38.833333333333314 169 38.833333333333314 C 165.004 38.833333333333314 165.004 32.833333333333314 169 32.833333333333314 Z" class="highcharts-point " stroke-width="3"></path><path fill="rgba(0, 0, 0, 0)" d="M 56 32.833333333333314 C 59.996 32.833333333333314 59.996 38.833333333333314 56 38.833333333333314 C 52.004 38.833333333333314 52.004 32.833333333333314 56 32.833333333333314 Z" class="highcharts-point " stroke-width="3"></path><path fill="#3FB27E" d="M 169 35.833333333333314 C 169 35.833333333333314 169 35.833333333333314 169 35.833333333333314 C 169 35.833333333333314 169 35.833333333333314 169 35.833333333333314 Z" class="highcharts-halo highcharts-color-undefined" fill-opacity="0.3"></path></g></g><g class="highcharts-data-labels highcharts-series-0 highcharts-column-series highcharts-color-undefined highcharts-tracker" transform="translate(54,22) scale(1 1)" opacity="1"><g class="highcharts-label highcharts-data-label highcharts-data-label-color-undefined " style="" transform="translate(49,174)"><text x="5" style="font-size:10px;font-weight:bold;font-family:inherit;color:#666;text-outline:none;fill:#666;" y="15"><tspan y="15">8</tspan></text></g><g class="highcharts-label highcharts-data-label highcharts-data-label-color-undefined " style="" transform="translate(163,181)"><text x="5" style="font-size:10px;font-weight:bold;font-family:inherit;color:#666;text-outline:none;fill:#666;" y="15"><tspan y="15">5</tspan></text></g><g class="highcharts-label highcharts-data-label highcharts-data-label-color-undefined " style="" transform="translate(273,18)"><text x="5" style="font-size:10px;font-weight:bold;font-family:inherit;color:#666;text-outline:none;fill:#666;" y="15"><tspan y="15">75</tspan></text></g><g class="highcharts-label highcharts-data-label highcharts-data-label-color-undefined " style="" transform="translate(389,181)"><text x="5" style="font-size:10px;font-weight:bold;font-family:inherit;color:#666;text-outline:none;fill:#666;" y="15"><tspan y="15">5</tspan></text></g><g class="highcharts-label highcharts-data-label highcharts-data-label-color-undefined " style="" transform="translate(499,25)"><text x="5" style="font-size:10px;font-weight:bold;font-family:inherit;color:#666;text-outline:none;fill:#666;" y="15"><tspan y="15">72</tspan></text></g></g><g class="highcharts-data-labels highcharts-series-1 highcharts-line-series highcharts-color-undefined " transform="translate(54,22) scale(1 1)" opacity="1"><g class="highcharts-label highcharts-data-label highcharts-data-label-color-undefined " style="" transform="translate(44,13)"><text x="5" style="font-size:10px;font-weight:bold;font-family:inherit;color:#666;text-outline:none;fill:#666;" y="15"><tspan y="15">100</tspan></text></g><g class="highcharts-label highcharts-data-label highcharts-data-label-color-undefined " style="" transform="translate(157,13)"><text x="5" style="font-size:10px;font-weight:bold;font-family:inherit;color:#666;text-outline:none;fill:#666;" y="15"><tspan y="15">100</tspan></text></g><g class="highcharts-label highcharts-data-label highcharts-data-label-color-undefined " style="" transform="translate(270,13)"><text x="5" style="font-size:10px;font-weight:bold;font-family:inherit;color:#666;text-outline:none;fill:#666;" y="15"><tspan y="15">100</tspan></text></g><g class="highcharts-label highcharts-data-label highcharts-data-label-color-undefined " style="" transform="translate(383,13)"><text x="5" style="font-size:10px;font-weight:bold;font-family:inherit;color:#666;text-outline:none;fill:#666;" y="15"><tspan y="15">100</tspan></text></g><g class="highcharts-label highcharts-data-label highcharts-data-label-color-undefined " style="" transform="translate(497,13)"><text x="5" style="font-size:10px;font-weight:bold;font-family:inherit;color:#666;text-outline:none;fill:#666;" y="15"><tspan y="15">100</tspan></text></g></g><g class="highcharts-legend" transform="translate(691,14)"><rect fill="none" class="highcharts-legend-box" rx="0" ry="0" x="0" y="0" width="67" height="47" visibility="visible"></rect><g><g><g class="highcharts-legend-item highcharts-column-series highcharts-color-undefined highcharts-series-0" transform="translate(8,3)"><rect x="0" y="10" width="6" height="6" fill="#9BCC66" rx="3" ry="3" class="highcharts-point"></rect></g><g class="highcharts-legend-item highcharts-line-series highcharts-color-undefined highcharts-series-1" transform="translate(8,21)"><path fill="#3FB27E" d="M 0 11 L 6 11 L 6 14 L 0 14" class="highcharts-graph"></path><path fill="rgba(0, 0, 0, 0)" d="M 3 8 C 6.996 8 6.996 14 3 14 C -0.996 14 -0.996 8 3 8 Z" class="highcharts-point"></path></g></g></g></g><g class="highcharts-axis-labels highcharts-xaxis-labels "><text x="110.6" style="color:#666666;cursor:default;font-size:10px;fill:#666666;width:103px;text-overflow:clip;" text-anchor="middle" transform="translate(0,0)" y="255" opacity="1"><tspan>AnimaUi(kobone)</tspan></text><text x="223.79999999999998" style="color:#666666;cursor:default;font-size:10px;fill:#666666;width:103px;text-overflow:clip;" text-anchor="middle" transform="translate(0,0)" y="255" opacity="1"><tspan>AnimaUi(vue)</tspan></text><text x="337" style="color:#666666;cursor:default;font-size:10px;fill:#666666;width:103px;text-overflow:clip;" text-anchor="middle" transform="translate(0,0)" y="255" opacity="1"><tspan>AnimaUi(微信小程序)</tspan></text><text x="450.2" style="color:#666666;cursor:default;font-size:10px;fill:#666666;width:103px;text-overflow:clip;" text-anchor="middle" transform="translate(0,0)" y="255" opacity="1"><tspan>AnimaUi(支付宝小程序)</tspan></text><text x="563.4" style="color:#666666;cursor:default;font-size:10px;fill:#666666;width:103px;text-overflow:clip;" text-anchor="middle" transform="translate(0,0)" y="255" opacity="1"><tspan>Axure元件库</tspan></text></g><g class="highcharts-axis-labels highcharts-yaxis-labels "><text x="39" style="color:#666666;cursor:default;font-size:11px;fill:#666666;width:240px;text-overflow:clip;" text-anchor="end" transform="translate(0,0)" y="241" opacity="1"><tspan>0</tspan></text><text x="39" style="color:#666666;cursor:default;font-size:11px;fill:#666666;width:240px;text-overflow:clip;" text-anchor="end" transform="translate(0,0)" y="187" opacity="1"><tspan>23</tspan></text><text x="39" style="color:#666666;cursor:default;font-size:11px;fill:#666666;width:240px;text-overflow:clip;" text-anchor="end" transform="translate(0,0)" y="133" opacity="1"><tspan>46</tspan></text><text x="39" style="color:#666666;cursor:default;font-size:11px;fill:#666666;width:240px;text-overflow:clip;" text-anchor="end" transform="translate(0,0)" y="79" opacity="1"><tspan>69</tspan></text><text x="39" style="color:#666666;cursor:default;font-size:11px;fill:#666666;width:240px;text-overflow:clip;" text-anchor="end" transform="translate(0,0)" y="26" opacity="1"><tspan>92</tspan></text></g><g class="highcharts-axis-labels highcharts-yaxis-labels "><text x="635" style="color:#666666;cursor:default;font-size:11px;fill:#666666;width:240px;text-overflow:clip;" text-anchor="start" transform="translate(0,0)" y="241" opacity="1"><tspan>0</tspan></text><text x="635" style="color:#666666;cursor:default;font-size:11px;fill:#666666;width:240px;text-overflow:clip;" text-anchor="start" transform="translate(0,0)" y="187" opacity="1"><tspan>30</tspan></text><text x="635" style="color:#666666;cursor:default;font-size:11px;fill:#666666;width:240px;text-overflow:clip;" text-anchor="start" transform="translate(0,0)" y="133" opacity="1"><tspan>60</tspan></text><text x="635" style="color:#666666;cursor:default;font-size:11px;fill:#666666;width:240px;text-overflow:clip;" text-anchor="start" transform="translate(0,0)" y="79" opacity="1"><tspan>90</tspan></text><text x="635" style="color:#666666;cursor:default;font-size:11px;fill:#666666;width:240px;text-overflow:clip;" text-anchor="start" transform="translate(0,0)" y="26" opacity="1"><tspan>120</tspan></text></g></svg>
