<svg version="1.1" class="highcharts-root" style="font-family:&quot;Avenir&quot;, &quot;wf_SegoeUI&quot;, &quot;Segoe UI&quot;, &quot;Segoe&quot;, &quot;Segoe WP&quot;, &quot;Tahoma&quot;, &quot;Verdana&quot;, &quot;Arial&quot;, &quot;sans-serif&quot;;font-size:12px;" xmlns="http://www.w3.org/2000/svg" width="507" viewBox="0 0 507 262" height="262"><defs><clipPath id="highcharts-7sehr4q-15"><rect x="0" y="0" width="506" height="167" fill="none"></rect></clipPath></defs><rect fill="none" class="highcharts-background" x="0" y="0" width="507" height="262" rx="0" ry="0"></rect><rect fill="none" class="highcharts-plot-background" x="1" y="80" width="506" height="167"></rect><g class="highcharts-plot-bands-0"><path fill="none" class="highcharts-plot-band highcharts-pane" d="M 254 84.59249999999999 A 78.90750000000001 78.90750000000001 0 1 1 253.92109251315122 84.5925394537467 M 254 163.5 A 0 0 0 1 0 254 163.5 " visibility="visible"></path></g><g class="highcharts-grid highcharts-xaxis-grid "><path fill="none" stroke="rgba(0, 0, 0, .12)" stroke-width="1" class="highcharts-grid-line" d="M 254 163.5 L 291.575 98.41819090559943" opacity="1"></path><path fill="none" stroke="rgba(0, 0, 0, .12)" stroke-width="1" class="highcharts-grid-line" d="M 254 163.5 L 329.15 163.5" opacity="1"></path><path fill="none" stroke="rgba(0, 0, 0, .12)" stroke-width="1" class="highcharts-grid-line" d="M 254 163.5 L 291.57500000000005 228.58180909440057" opacity="1"></path><path fill="none" stroke="rgba(0, 0, 0, .12)" stroke-width="1" class="highcharts-grid-line" d="M 254 163.5 L 216.425 228.58180909440057" opacity="1"></path><path fill="none" stroke="rgba(0, 0, 0, .12)" stroke-width="1" class="highcharts-grid-line" d="M 254 163.5 L 178.85 163.5" opacity="1"></path><path fill="none" stroke="rgba(0, 0, 0, .12)" stroke-width="1" class="highcharts-grid-line" d="M 254 163.5 L 216.42499999999995 98.41819090559945" opacity="1"></path><path fill="none" stroke="rgba(0, 0, 0, .12)" stroke-width="1" class="highcharts-grid-line" d="M 254 163.5 L 291.575 98.41819090559943" opacity="1"></path></g><g class="highcharts-grid highcharts-yaxis-grid "><path fill="none" stroke="rgba(0, 0, 0, .12)" stroke-width="1" class="highcharts-grid-line" d="M 254 163.5 L 254 163.5 L 254 163.5 L 254 163.5 L 254 163.5 L 254 163.5 L 254 163.5 L 254 163.5" opacity="1"></path><path fill="none" stroke="rgba(0, 0, 0, .12)" stroke-width="1" class="highcharts-grid-line" d="M 263.39375 147.22954772639986 L 263.39375 147.22954772639986 L 244.60625 147.22954772639986 L 235.2125 163.5 L 244.60625 179.77045227360014 L 263.39375 179.77045227360014 L 272.7875 163.5 L 263.39375 147.22954772639986" opacity="1"></path><path fill="none" stroke="rgba(0, 0, 0, .12)" stroke-width="1" class="highcharts-grid-line" d="M 272.7875 130.95909545279972 L 272.7875 130.95909545279972 L 235.21249999999998 130.95909545279972 L 216.425 163.5 L 235.2125 196.04090454720028 L 272.7875 196.04090454720028 L 291.575 163.5 L 272.7875 130.95909545279972" opacity="1"></path><path fill="none" stroke="rgba(0, 0, 0, .12)" stroke-width="1" class="highcharts-grid-line" d="M 282.18125 114.68864317919957 L 282.18125000000003 114.68864317919957 L 225.81874999999997 114.68864317919957 L 197.6375 163.5 L 225.81875000000002 212.31135682080043 L 282.18125000000003 212.31135682080043 L 310.3625 163.5 L 282.18125 114.68864317919957" opacity="1"></path><path fill="none" stroke="rgba(0, 0, 0, .12)" stroke-width="1" class="highcharts-grid-line" d="M 291.575 98.41819090559943 L 291.575 98.41819090559943 L 216.42499999999995 98.41819090559945 L 178.85 163.5 L 216.425 228.58180909440057 L 291.57500000000005 228.58180909440057 L 329.15 163.5 L 291.575 98.41819090559943" opacity="1"></path></g><rect fill="none" class="highcharts-plot-border" x="1" y="80" width="506" height="167"></rect><g class="highcharts-axis highcharts-xaxis "><path fill="none" class="highcharts-axis-line" stroke-dasharray="none" d="M 254 88.35 A 75.15 75.15 0 1 1 253.92485001252496 88.35003757499686 M 254 163.5 A 0 0 0 1 0 254 163.5 "></path></g><g class="highcharts-axis highcharts-yaxis "><path fill="none" class="highcharts-axis-line" stroke-dasharray="none" d="M 254 163.5 L 254 88.35"></path></g><g class="highcharts-series-group"><g class="highcharts-series highcharts-series-0 highcharts-line-series highcharts-color-undefined " transform="translate(1,80) scale(1 1)" width="75.15" height="472.1813758345459" clip-path="url(#highcharts-7sehr4q-15)"><path fill="none" d="M 284.31250000000006 29.265159087999564 L 315.625 83.50000000000023 L 281.1812499999997 132.3113568208006 L 222.9399999999996 135.56544727552023 L 199.14249999999998 83.49999999999943 L 225.1318750000006 35.23099158831923 L 284.31250000000006 29.265159087999564" class="highcharts-graph" stroke="#9BCC66" stroke-width="3" stroke-linejoin="round" stroke-linecap="round"></path><path fill="none" d="M 274.31250000000006 29.265159087999564 L 284.31250000000006 29.265159087999564 L 315.625 83.50000000000023 L 281.1812499999997 132.3113568208006 L 222.9399999999996 135.56544727552023 L 199.14249999999998 83.49999999999943 L 225.1318750000006 35.23099158831923 L 284.31250000000006 29.265159087999564 L 294.31250000000006 29.265159087999564" stroke-linejoin="round" visibility="visible" stroke="rgba(192,192,192,0.0001)" stroke-width="23" class="highcharts-tracker"></path></g><g class="highcharts-markers highcharts-series-0 highcharts-line-series highcharts-color-undefined highcharts-tracker " transform="translate(1,80) scale(1 1)" width="75.15" height="472.1813758345459" clip-path="none"><path fill="#9BCC66" d="M 284 26.265159087999564 C 287.996 26.265159087999564 287.996 32.265159087999564 284 32.265159087999564 C 280.004 32.265159087999564 280.004 26.265159087999564 284 26.265159087999564 Z" stroke="#9BCC66" stroke-width="2" class="highcharts-point "></path><path fill="#9BCC66" d="M 225 32.23099158831923 C 228.996 32.23099158831923 228.996 38.23099158831923 225 38.23099158831923 C 221.004 38.23099158831923 221.004 32.23099158831923 225 32.23099158831923 Z" stroke="#9BCC66" stroke-width="2" class="highcharts-point "></path><path fill="#9BCC66" d="M 199 80.49999999999943 C 202.996 80.49999999999943 202.996 86.49999999999943 199 86.49999999999943 C 195.004 86.49999999999943 195.004 80.49999999999943 199 80.49999999999943 Z" stroke="#9BCC66" stroke-width="2" class="highcharts-point "></path><path fill="#9BCC66" d="M 222 132.56544727552023 C 225.996 132.56544727552023 225.996 138.56544727552023 222 138.56544727552023 C 218.004 138.56544727552023 218.004 132.56544727552023 222 132.56544727552023 Z" stroke="#9BCC66" stroke-width="2" class="highcharts-point"></path><path fill="#9BCC66" d="M 281 129.3113568208006 C 284.996 129.3113568208006 284.996 135.3113568208006 281 135.3113568208006 C 277.004 135.3113568208006 277.004 129.3113568208006 281 129.3113568208006 Z" stroke="#9BCC66" stroke-width="2" class="highcharts-point "></path><path fill="#9BCC66" d="M 315 80.50000000000023 C 318.996 80.50000000000023 318.996 86.50000000000023 315 86.50000000000023 C 311.004 86.50000000000023 311.004 80.50000000000023 315 80.50000000000023 Z" stroke="#9BCC66" stroke-width="2" class="highcharts-point "></path><path fill="#9BCC66" d="M 199 83.49999999999943 C 199 83.49999999999943 199 83.49999999999943 199 83.49999999999943 C 199 83.49999999999943 199 83.49999999999943 199 83.49999999999943 Z" class="highcharts-halo highcharts-color-undefined" fill-opacity="0.3"></path></g></g><text x="254" text-anchor="middle" class="highcharts-subtitle" style="color:#333333;font-family:Microsoft Yahei;font-size:16px;fill:#333333;width:462px;" y="-10"><tspan>未命名图表</tspan></text><g class="highcharts-axis-labels highcharts-xaxis-labels "><text x="299.075" style="color:#666666;cursor:default;font-size:10px;fill:#666666;width:62px;text-overflow:clip;" transform="translate(0,0)" text-anchor="start" y="88.67780984883285" opacity="1"><tspan>Axure元件库</tspan></text><text x="344.15" style="color:#666666;cursor:default;font-size:10px;fill:#666666;width:62px;text-overflow:clip;" transform="translate(0,0)" text-anchor="start" y="166.75" opacity="1"><tspan>UI框架</tspan></text><text x="299.07500000000005" style="color:#666666;cursor:default;font-size:10px;fill:#666666;width:62px;text-overflow:clip;" transform="translate(0,0)" text-anchor="start" y="244.82219015116715" opacity="1"><tspan>css</tspan></text><text x="208.925" style="color:#666666;cursor:default;font-size:10px;fill:#666666;width:62px;text-overflow:clip;" transform="translate(0,0)" text-anchor="end" y="244.82219015116715" opacity="1"><tspan>html</tspan></text><text x="163.85" style="color:#666666;cursor:default;font-size:10px;fill:#666666;width:62px;text-overflow:clip;" transform="translate(0,0)" text-anchor="end" y="166.75" opacity="1"><tspan>javascript</tspan></text><text x="208.92499999999995" style="color:#666666;cursor:default;font-size:10px;fill:#666666;width:62px;text-overflow:clip;" transform="translate(0,0)" text-anchor="end" y="88.67780984883287" opacity="1"><tspan>微信小程序</tspan></text><text x="0" style="color:#666666;cursor:default;font-size:10px;fill:#666666;width:62px;text-overflow:clip;" transform="translate(0,0)" text-anchor="start" y="-9999"><tspan>6</tspan></text></g><g class="highcharts-axis-labels highcharts-yaxis-labels "><text x="251" style="color:#666666;cursor:default;font-size:11px;fill:#666666;width:157px;text-overflow:ellipsis;" text-anchor="end" transform="translate(0,0)" y="161.5" opacity="1"><tspan>0</tspan></text><text x="251" style="color:#666666;cursor:default;font-size:11px;fill:#666666;width:157px;text-overflow:ellipsis;" text-anchor="end" transform="translate(0,0)" y="142.7125" opacity="1"><tspan>30</tspan></text><text x="251" style="color:#666666;cursor:default;font-size:11px;fill:#666666;width:157px;text-overflow:ellipsis;" text-anchor="end" transform="translate(0,0)" y="123.925" opacity="1"><tspan>60</tspan></text><text x="251" style="color:#666666;cursor:default;font-size:11px;fill:#666666;width:157px;text-overflow:ellipsis;" text-anchor="end" transform="translate(0,0)" y="105.13749999999999" opacity="1"><tspan>90</tspan></text><text x="0" style="color:#666666;cursor:default;font-size:11px;fill:#666666;width:157px;text-overflow:ellipsis;" text-anchor="end" transform="translate(0,0)" y="-9999"><tspan>120</tspan></text></g><g class="highcharts-label highcharts-tooltip highcharts-color-undefined" style="cursor:default;pointer-events:none;white-space:nowrap;padding:0px;" transform="translate(11,139)" opacity="1" visibility="hidden"><path fill="none" class="highcharts-label-box highcharts-tooltip-box" d="M 0 0 L 106 0 C 106 0 106 0 106 0 L 106 77 C 106 77 106 77 106 77 L 0 77 C 0 77 0 77 0 77 L 0 0 C 0 0 0 0 0 0"></path></g></svg>
