<svg version="1.1" class="highcharts-root" style="font-family:&quot;Avenir&quot;, &quot;wf_SegoeUI&quot;, &quot;Segoe UI&quot;, &quot;Segoe&quot;, &quot;Segoe WP&quot;, &quot;Tahoma&quot;, &quot;Verdana&quot;, &quot;Arial&quot;, &quot;sans-serif&quot;;font-size:12px;" xmlns="http://www.w3.org/2000/svg" width="507" viewBox="0 0 507 262" height="262"><desc>Created with Highcharts 5.0.4</desc><defs><clipPath id="highcharts-7sehr4q-36"><rect x="0" y="0" width="506" height="237" fill="none"></rect></clipPath></defs><rect fill="none" class="highcharts-background" x="0" y="0" width="507" height="262" rx="0" ry="0"></rect><rect fill="none" class="highcharts-plot-background" x="1" y="10" width="506" height="237"></rect><g class="highcharts-plot-bands-0"><path fill="none" class="highcharts-plot-band highcharts-pane" d="M 254 16.5175 A 111.9825 111.9825 0 1 1 253.8880175186637 16.51755599124533 M 254 128.5 A 0 0 0 1 0 254 128.5 " visibility="visible"></path></g><g class="highcharts-grid highcharts-xaxis-grid "><path fill="none" stroke="rgba(0, 0, 0, .12)" stroke-width="1" class="highcharts-grid-line" d="M 254 128.5 L 307.325 36.13839068638961" opacity="1"></path><path fill="none" stroke="rgba(0, 0, 0, .12)" stroke-width="1" class="highcharts-grid-line" d="M 254 128.5 L 360.65 128.5" opacity="1"></path><path fill="none" stroke="rgba(0, 0, 0, .12)" stroke-width="1" class="highcharts-grid-line" d="M 254 128.5 L 307.32500000000005 220.86160931361036" opacity="1"></path><path fill="none" stroke="rgba(0, 0, 0, .12)" stroke-width="1" class="highcharts-grid-line" d="M 254 128.5 L 200.675 220.8616093136104" opacity="1"></path><path fill="none" stroke="rgba(0, 0, 0, .12)" stroke-width="1" class="highcharts-grid-line" d="M 254 128.5 L 147.35 128.5" opacity="1"></path><path fill="none" stroke="rgba(0, 0, 0, .12)" stroke-width="1" class="highcharts-grid-line" d="M 254 128.5 L 200.67499999999995 36.13839068638963" opacity="1"></path><path fill="none" stroke="rgba(0, 0, 0, .12)" stroke-width="1" class="highcharts-grid-line" d="M 254 128.5 L 307.32500000000005 36.13839068638961" opacity="1"></path></g><g class="highcharts-grid highcharts-yaxis-grid "><path fill="none" stroke="rgba(0, 0, 0, .12)" stroke-width="1" class="highcharts-grid-line" d="M 254 128.5 L 254 128.5 L 254 128.5 L 254 128.5 L 254 128.5 L 254 128.5 L 254 128.5 L 254 128.5" opacity="1"></path><path fill="none" stroke="rgba(0, 0, 0, .12)" stroke-width="1" class="highcharts-grid-line" d="M 267.33125 105.4095976715974 L 267.33125 105.4095976715974 L 240.66875 105.40959767159741 L 227.3375 128.5 L 240.66875000000002 151.5904023284026 L 267.33125 151.5904023284026 L 280.6625 128.5 L 267.33125 105.4095976715974" opacity="1"></path><path fill="none" stroke="rgba(0, 0, 0, .12)" stroke-width="1" class="highcharts-grid-line" d="M 280.6625 82.3191953431948 L 280.6625 82.3191953431948 L 227.33749999999998 82.31919534319482 L 200.675 128.5 L 227.3375 174.6808046568052 L 280.6625 174.68080465680518 L 307.325 128.5 L 280.6625 82.3191953431948" opacity="1"></path><path fill="none" stroke="rgba(0, 0, 0, .12)" stroke-width="1" class="highcharts-grid-line" d="M 293.99375 59.22879301479222 L 293.99375 59.22879301479222 L 214.00624999999997 59.22879301479223 L 174.0125 128.5 L 214.00625000000002 197.77120698520778 L 293.99375000000003 197.77120698520775 L 333.9875 128.5 L 293.99375 59.22879301479222" opacity="1"></path><path fill="none" stroke="rgba(0, 0, 0, .12)" stroke-width="1" class="highcharts-grid-line" d="M 307.325 36.13839068638961 L 307.32500000000005 36.13839068638961 L 200.67499999999995 36.13839068638963 L 147.35 128.5 L 200.675 220.8616093136104 L 307.32500000000005 220.86160931361036 L 360.65 128.5 L 307.325 36.13839068638961" opacity="1"></path></g><rect fill="none" class="highcharts-plot-border" x="1" y="10" width="506" height="237"></rect><g class="highcharts-axis highcharts-xaxis "><path fill="none" class="highcharts-axis-line" stroke-dasharray="none" d="M 254 21.849999999999994 A 106.65 106.65 0 1 1 253.89335001777494 21.850053324995557 M 254 128.5 A 0 0 0 1 0 254 128.5 "></path></g><g class="highcharts-axis highcharts-yaxis "><path fill="none" class="highcharts-axis-line" stroke-dasharray="none" d="M 254 128.5 L 254 21.849999999999994"></path></g><g class="highcharts-series-group"><g class="highcharts-series highcharts-series-0 highcharts-line-series highcharts-color-undefined " transform="translate(1,10) scale(1 1)" width="106.65" height="670.101713010703" clip-path="url(#highcharts-7sehr4q-36)"><path fill="none" d="M 297.4375000000001 41.53199223865806 L 341.875 118.50000000000031 L 292.9937499999996 187.77120698520804 L 210.3399999999994 192.389287450888 L 176.5675 118.4999999999992 L 213.45062500000088 49.99847309240512 L 297.4375000000001 41.53199223865806" class="highcharts-graph" stroke="#9BCC66" stroke-width="3" stroke-linejoin="round" stroke-linecap="round"></path><path fill="none" d="M 287.4375000000001 41.53199223865806 L 297.4375000000001 41.53199223865806 L 341.875 118.50000000000031 L 292.9937499999996 187.77120698520804 L 210.3399999999994 192.389287450888 L 176.5675 118.4999999999992 L 213.45062500000088 49.99847309240512 L 297.4375000000001 41.53199223865806 L 307.4375000000001 41.53199223865806" stroke-linejoin="round" visibility="visible" stroke="rgba(192,192,192,0.0001)" stroke-width="23" class="highcharts-tracker"></path></g><g class="highcharts-markers highcharts-series-0 highcharts-line-series highcharts-color-undefined highcharts-tracker " transform="translate(1,10) scale(1 1)" width="106.65" height="670.101713010703" clip-path="none"><path fill="#9BCC66" d="M 297 38.53199223865806 C 300.996 38.53199223865806 300.996 44.53199223865806 297 44.53199223865806 C 293.004 44.53199223865806 293.004 38.53199223865806 297 38.53199223865806 Z" stroke="#9BCC66" stroke-width="2" class="highcharts-point"></path><path fill="#9BCC66" d="M 213 46.99847309240512 C 216.996 46.99847309240512 216.996 52.99847309240512 213 52.99847309240512 C 209.004 52.99847309240512 209.004 46.99847309240512 213 46.99847309240512 Z" stroke="#9BCC66" stroke-width="2" class="highcharts-point "></path><path fill="#9BCC66" d="M 176 115.4999999999992 C 179.996 115.4999999999992 179.996 121.4999999999992 176 121.4999999999992 C 172.004 121.4999999999992 172.004 115.4999999999992 176 115.4999999999992 Z" stroke="#9BCC66" stroke-width="2" class="highcharts-point "></path><path fill="#9BCC66" d="M 210 189.389287450888 C 213.996 189.389287450888 213.996 195.389287450888 210 195.389287450888 C 206.004 195.389287450888 206.004 189.389287450888 210 189.389287450888 Z" stroke="#9BCC66" stroke-width="2" class="highcharts-point"></path><path fill="#9BCC66" d="M 292 184.77120698520804 C 295.996 184.77120698520804 295.996 190.77120698520804 292 190.77120698520804 C 288.004 190.77120698520804 288.004 184.77120698520804 292 184.77120698520804 Z" stroke="#9BCC66" stroke-width="2" class="highcharts-point"></path><path fill="#9BCC66" d="M 341 115.50000000000031 C 344.996 115.50000000000031 344.996 121.50000000000031 341 121.50000000000031 C 337.004 121.50000000000031 337.004 115.50000000000031 341 115.50000000000031 Z" stroke="#9BCC66" stroke-width="2" class="highcharts-point "></path><path fill="#9BCC66" d="M 176 118.4999999999992 C 176 118.4999999999992 176 118.4999999999992 176 118.4999999999992 C 176 118.4999999999992 176 118.4999999999992 176 118.4999999999992 Z" class="highcharts-halo highcharts-color-undefined" fill-opacity="0.3"></path></g></g><text x="254" text-anchor="middle" class="highcharts-subtitle" style="color:#333333;font-family:Microsoft Yahei;font-size:16px;fill:#333333;width:462px;" y="-10"><tspan>未命名图表</tspan></text><g class="highcharts-data-labels highcharts-series-0 highcharts-line-series highcharts-color-undefined " transform="translate(1,10) scale(1 1)" opacity="1" visibility="visible"><g class="highcharts-label highcharts-data-label highcharts-data-label-color-undefined " style="" transform="translate(283,16)"><text x="5" style="font-size:12px;font-weight:bold;color:#666;text-outline:none;fill:#666;" y="17"><tspan y="17">100</tspan></text></g><g class="highcharts-label highcharts-data-label highcharts-data-label-color-undefined " style="" transform="translate(328,93)"><text x="5" style="font-size:12px;font-weight:bold;color:#666;text-outline:none;fill:#666;" y="17"><tspan y="17">100</tspan></text></g><g class="highcharts-label highcharts-data-label highcharts-data-label-color-undefined " style="" transform="translate(282,162)"><text x="5" style="font-size:12px;font-weight:bold;color:#666;text-outline:none;fill:#666;" y="17"><tspan y="17">90</tspan></text></g><g class="highcharts-label highcharts-data-label highcharts-data-label-color-undefined " style="" transform="translate(199,166)"><text x="5" style="font-size:12px;font-weight:bold;color:#666;text-outline:none;fill:#666;" y="17"><tspan y="17">96</tspan></text></g><g class="highcharts-label highcharts-data-label highcharts-data-label-color-undefined " style="" transform="translate(165,92)"><text x="5" style="font-size:12px;font-weight:bold;color:#666;text-outline:none;fill:#666;" y="17"><tspan y="17">86</tspan></text></g><g class="highcharts-label highcharts-data-label highcharts-data-label-color-undefined " style="" transform="translate(202,24)"><text x="5" style="font-size:12px;font-weight:bold;color:#666;text-outline:none;fill:#666;" y="17"><tspan y="17">89</tspan></text></g></g><g class="highcharts-axis-labels highcharts-xaxis-labels "><text x="314.825" style="color:#666666;cursor:default;font-size:10px;fill:#666666;width:62px;text-overflow:clip;" transform="translate(0,0)" text-anchor="start" y="26.398009629623033" opacity="1"><tspan>Axure元件库</tspan></text><text x="375.65" style="color:#666666;cursor:default;font-size:10px;fill:#666666;width:62px;text-overflow:clip;" transform="translate(0,0)" text-anchor="start" y="131.75" opacity="1"><tspan>UI框架</tspan></text><text x="314.82500000000005" style="color:#666666;cursor:default;font-size:10px;fill:#666666;width:62px;text-overflow:clip;" transform="translate(0,0)" text-anchor="start" y="237.10199037037694" opacity="1"><tspan>css</tspan></text><text x="193.175" style="color:#666666;cursor:default;font-size:10px;fill:#666666;width:62px;text-overflow:clip;" transform="translate(0,0)" text-anchor="end" y="237.10199037037697" opacity="1"><tspan>html</tspan></text><text x="132.35" style="color:#666666;cursor:default;font-size:10px;fill:#666666;width:62px;text-overflow:clip;" transform="translate(0,0)" text-anchor="end" y="131.75000000000003" opacity="1"><tspan>javascript</tspan></text><text x="193.17499999999995" style="color:#666666;cursor:default;font-size:10px;fill:#666666;width:62px;text-overflow:clip;" transform="translate(0,0)" text-anchor="end" y="26.398009629623047" opacity="1"><tspan>微信小程序</tspan></text><text x="0" style="color:#666666;cursor:default;font-size:10px;fill:#666666;width:62px;text-overflow:clip;" transform="translate(0,0)" text-anchor="start" y="-9999"><tspan>6</tspan></text></g><g class="highcharts-axis-labels highcharts-yaxis-labels "><text x="251" style="color:#666666;cursor:default;font-size:11px;fill:#666666;width:157px;text-overflow:clip;" text-anchor="end" transform="translate(0,0)" y="126.5" opacity="1"><tspan>0</tspan></text><text x="251" style="color:#666666;cursor:default;font-size:11px;fill:#666666;width:157px;text-overflow:clip;" text-anchor="end" transform="translate(0,0)" y="99.8375" opacity="1"><tspan>30</tspan></text><text x="251" style="color:#666666;cursor:default;font-size:11px;fill:#666666;width:157px;text-overflow:clip;" text-anchor="end" transform="translate(0,0)" y="73.175" opacity="1"><tspan>60</tspan></text><text x="251" style="color:#666666;cursor:default;font-size:11px;fill:#666666;width:157px;text-overflow:clip;" text-anchor="end" transform="translate(0,0)" y="46.5125" opacity="1"><tspan>90</tspan></text><text x="0" style="color:#666666;cursor:default;font-size:11px;fill:#666666;width:157px;text-overflow:clip;" text-anchor="end" transform="translate(0,0)" y="-9999"><tspan>120</tspan></text></g><g class="highcharts-label highcharts-tooltip highcharts-color-undefined" style="cursor:default;pointer-events:none;white-space:nowrap;padding:0px;" transform="translate(14,118)" opacity="1" visibility="hidden"><path fill="none" class="highcharts-label-box highcharts-tooltip-box" d="M 0 0 L 106 0 C 106 0 106 0 106 0 L 106 77 C 106 77 106 77 106 77 L 0 77 C 0 77 0 77 0 77 L 0 0 C 0 0 0 0 0 0"></path></g></svg>
